<svg xmlns="http://www.w3.org/2000/svg" xmlns:xlink="http://www.w3.org/1999/xlink" width="131" zoomAndPan="magnify" viewBox="0 0 375 374.999991" height="100" preserveAspectRatio="xMidYMid meet" version="1.0"><defs><g/></defs><g fill="#ff0000" fill-opacity="1"><g transform="translate(38.882485, 173.786348)"><g><path d="M 48.53125 0 L 48.53125 -10.636719 L 13.960938 -10.636719 L 13.960938 -35.898438 L 39.554688 -35.898438 L 39.554688 -29.25 L 50.191406 -29.25 L 50.191406 -39.886719 L 43.542969 -46.535156 L 9.972656 -46.535156 L 3.324219 -39.886719 L 3.324219 -6.648438 L 9.972656 0 Z M 48.53125 0 "/></g></g></g><g fill="#ff0000" fill-opacity="1"><g transform="translate(99.503844, 173.786348)"><g><path d="M 40.554688 -11.300781 L 47.199219 -17.949219 L 47.199219 -39.886719 L 40.554688 -46.535156 L 0.332031 -46.535156 L 0.332031 -35.898438 L 36.5625 -35.898438 L 36.5625 -21.9375 L 15.957031 -21.9375 L 15.957031 -32.574219 L 5.320312 -32.574219 L 5.320312 0 L 15.957031 0 L 15.957031 -11.300781 L 27.058594 -11.300781 C 30.382812 -7.511719 33.640625 -3.722656 37.03125 0 L 50.523438 0 C 47.132812 -3.722656 43.875 -7.511719 40.554688 -11.300781 Z M 40.554688 -11.300781 "/></g></g></g><g fill="#ff0000" fill-opacity="1"><g transform="translate(157.798791, 173.786348)"><g><path d="M 43.542969 0 L 50.191406 -6.648438 L 50.191406 -46.535156 L 39.554688 -46.535156 L 39.554688 -28.917969 L 13.960938 -28.917969 L 13.960938 -46.535156 L 3.324219 -46.535156 L 3.324219 -24.929688 L 9.972656 -18.28125 L 39.554688 -18.28125 L 39.554688 -10.636719 L 6.648438 -10.636719 L 6.648438 0 Z M 43.542969 0 "/></g></g></g><g fill="#ff0000" fill-opacity="1"><g transform="translate(218.420155, 173.786348)"><g><path d="M 40.554688 -11.300781 L 47.199219 -17.949219 L 47.199219 -39.886719 L 40.554688 -46.535156 L 0.332031 -46.535156 L 0.332031 -35.898438 L 36.5625 -35.898438 L 36.5625 -21.9375 L 15.957031 -21.9375 L 15.957031 -32.574219 L 5.320312 -32.574219 L 5.320312 0 L 15.957031 0 L 15.957031 -11.300781 Z M 40.554688 -11.300781 "/></g></g></g><g fill="#ff0000" fill-opacity="1"><g transform="translate(274.721055, 173.786348)"><g><path d="M 45.207031 0 L 51.855469 -6.648438 L 51.855469 -39.886719 L 45.207031 -46.535156 L 9.972656 -46.535156 L 3.324219 -39.886719 L 3.324219 -6.648438 L 9.972656 0 Z M 41.21875 -10.636719 L 13.960938 -10.636719 L 13.960938 -35.898438 L 41.21875 -35.898438 Z M 41.21875 -10.636719 "/></g></g></g><g fill="#00ffff" fill-opacity="1"><g transform="translate(45.481562, 172.976084)"><g><path d="M 48.53125 0 L 48.53125 -10.636719 L 13.960938 -10.636719 L 13.960938 -35.898438 L 39.554688 -35.898438 L 39.554688 -29.25 L 50.191406 -29.25 L 50.191406 -39.886719 L 43.542969 -46.535156 L 9.972656 -46.535156 L 3.324219 -39.886719 L 3.324219 -6.648438 L 9.972656 0 Z M 48.53125 0 "/></g></g></g><g fill="#00ffff" fill-opacity="1"><g transform="translate(106.102921, 172.976084)"><g><path d="M 40.554688 -11.300781 L 47.199219 -17.949219 L 47.199219 -39.886719 L 40.554688 -46.535156 L 0.332031 -46.535156 L 0.332031 -35.898438 L 36.5625 -35.898438 L 36.5625 -21.9375 L 15.957031 -21.9375 L 15.957031 -32.574219 L 5.320312 -32.574219 L 5.320312 0 L 15.957031 0 L 15.957031 -11.300781 L 27.058594 -11.300781 C 30.382812 -7.511719 33.640625 -3.722656 37.03125 0 L 50.523438 0 C 47.132812 -3.722656 43.875 -7.511719 40.554688 -11.300781 Z M 40.554688 -11.300781 "/></g></g></g><g fill="#00ffff" fill-opacity="1"><g transform="translate(164.397867, 172.976084)"><g><path d="M 43.542969 0 L 50.191406 -6.648438 L 50.191406 -46.535156 L 39.554688 -46.535156 L 39.554688 -28.917969 L 13.960938 -28.917969 L 13.960938 -46.535156 L 3.324219 -46.535156 L 3.324219 -24.929688 L 9.972656 -18.28125 L 39.554688 -18.28125 L 39.554688 -10.636719 L 6.648438 -10.636719 L 6.648438 0 Z M 43.542969 0 "/></g></g></g><g fill="#00ffff" fill-opacity="1"><g transform="translate(225.019232, 172.976084)"><g><path d="M 40.554688 -11.300781 L 47.199219 -17.949219 L 47.199219 -39.886719 L 40.554688 -46.535156 L 0.332031 -46.535156 L 0.332031 -35.898438 L 36.5625 -35.898438 L 36.5625 -21.9375 L 15.957031 -21.9375 L 15.957031 -32.574219 L 5.320312 -32.574219 L 5.320312 0 L 15.957031 0 L 15.957031 -11.300781 Z M 40.554688 -11.300781 "/></g></g></g><g fill="#00ffff" fill-opacity="1"><g transform="translate(281.320131, 172.976084)"><g><path d="M 45.207031 0 L 51.855469 -6.648438 L 51.855469 -39.886719 L 45.207031 -46.535156 L 9.972656 -46.535156 L 3.324219 -39.886719 L 3.324219 -6.648438 L 9.972656 0 Z M 41.21875 -10.636719 L 13.960938 -10.636719 L 13.960938 -35.898438 L 41.21875 -35.898438 Z M 41.21875 -10.636719 "/></g></g></g><g fill="#ffffff" fill-opacity="1"><g transform="translate(42.182023, 173.381216)"><g><path d="M 48.53125 0 L 48.53125 -10.636719 L 13.960938 -10.636719 L 13.960938 -35.898438 L 39.554688 -35.898438 L 39.554688 -29.25 L 50.191406 -29.25 L 50.191406 -39.886719 L 43.542969 -46.535156 L 9.972656 -46.535156 L 3.324219 -39.886719 L 3.324219 -6.648438 L 9.972656 0 Z M 48.53125 0 "/></g></g></g><g fill="#ffffff" fill-opacity="1"><g transform="translate(102.803382, 173.381216)"><g><path d="M 40.554688 -11.300781 L 47.199219 -17.949219 L 47.199219 -39.886719 L 40.554688 -46.535156 L 0.332031 -46.535156 L 0.332031 -35.898438 L 36.5625 -35.898438 L 36.5625 -21.9375 L 15.957031 -21.9375 L 15.957031 -32.574219 L 5.320312 -32.574219 L 5.320312 0 L 15.957031 0 L 15.957031 -11.300781 L 27.058594 -11.300781 C 30.382812 -7.511719 33.640625 -3.722656 37.03125 0 L 50.523438 0 C 47.132812 -3.722656 43.875 -7.511719 40.554688 -11.300781 Z M 40.554688 -11.300781 "/></g></g></g><g fill="#ffffff" fill-opacity="1"><g transform="translate(161.098328, 173.381216)"><g><path d="M 43.542969 0 L 50.191406 -6.648438 L 50.191406 -46.535156 L 39.554688 -46.535156 L 39.554688 -28.917969 L 13.960938 -28.917969 L 13.960938 -46.535156 L 3.324219 -46.535156 L 3.324219 -24.929688 L 9.972656 -18.28125 L 39.554688 -18.28125 L 39.554688 -10.636719 L 6.648438 -10.636719 L 6.648438 0 Z M 43.542969 0 "/></g></g></g><g fill="#ffffff" fill-opacity="1"><g transform="translate(221.719693, 173.381216)"><g><path d="M 40.554688 -11.300781 L 47.199219 -17.949219 L 47.199219 -39.886719 L 40.554688 -46.535156 L 0.332031 -46.535156 L 0.332031 -35.898438 L 36.5625 -35.898438 L 36.5625 -21.9375 L 15.957031 -21.9375 L 15.957031 -32.574219 L 5.320312 -32.574219 L 5.320312 0 L 15.957031 0 L 15.957031 -11.300781 Z M 40.554688 -11.300781 "/></g></g></g><g fill="#ffffff" fill-opacity="1"><g transform="translate(278.020592, 173.381216)"><g><path d="M 45.207031 0 L 51.855469 -6.648438 L 51.855469 -39.886719 L 45.207031 -46.535156 L 9.972656 -46.535156 L 3.324219 -39.886719 L 3.324219 -6.648438 L 9.972656 0 Z M 41.21875 -10.636719 L 13.960938 -10.636719 L 13.960938 -35.898438 L 41.21875 -35.898438 Z M 41.21875 -10.636719 "/></g></g></g><g fill="#ff0000" fill-opacity="1"><g transform="translate(71.237951, 233.036344)"><g><path d="M 40.554688 -11.300781 L 47.199219 -17.949219 L 47.199219 -39.886719 L 40.554688 -46.535156 L 0.332031 -46.535156 L 0.332031 -35.898438 L 36.5625 -35.898438 L 36.5625 -21.9375 L 15.957031 -21.9375 L 15.957031 -32.574219 L 5.320312 -32.574219 L 5.320312 0 L 15.957031 0 L 15.957031 -11.300781 L 27.058594 -11.300781 C 30.382812 -7.511719 33.640625 -3.722656 37.03125 0 L 50.523438 0 C 47.132812 -3.722656 43.875 -7.511719 40.554688 -11.300781 Z M 40.554688 -11.300781 "/></g></g></g><g fill="#ff0000" fill-opacity="1"><g transform="translate(129.532898, 233.036344)"><g><path d="M 48.53125 0 L 48.53125 -10.636719 L 13.960938 -10.636719 L 13.960938 -35.898438 L 39.554688 -35.898438 L 39.554688 -27.921875 L 17.285156 -27.921875 L 17.285156 -17.285156 L 43.542969 -17.285156 L 50.191406 -23.933594 L 50.191406 -39.886719 L 43.542969 -46.535156 L 9.972656 -46.535156 L 3.324219 -39.886719 L 3.324219 -6.648438 L 9.972656 0 Z M 48.53125 0 "/></g></g></g><g fill="#ff0000" fill-opacity="1"><g transform="translate(190.154257, 233.036344)"><g><path d="M 49.925781 0 L 39.023438 -23.269531 L 49.925781 -46.535156 L 38.226562 -46.535156 L 29.78125 -28.585938 L 15.957031 -28.585938 L 15.957031 -46.535156 L 0.332031 -46.535156 L 0.332031 -35.898438 L 5.320312 -35.898438 L 5.320312 0 L 15.957031 0 L 15.957031 -17.949219 L 29.914062 -17.949219 L 38.226562 0 Z M 49.925781 0 "/></g></g></g><g fill="#ff0000" fill-opacity="1"><g transform="translate(249.180361, 233.036344)"><g><path d="M 29.316406 0 L 29.316406 -35.898438 L 47.667969 -35.898438 L 47.667969 -46.535156 L 0.332031 -46.535156 L 0.332031 -35.898438 L 18.679688 -35.898438 L 18.679688 0 Z M 29.316406 0 "/></g></g></g><g fill="#00ffff" fill-opacity="1"><g transform="translate(77.837028, 232.22608)"><g><path d="M 40.554688 -11.300781 L 47.199219 -17.949219 L 47.199219 -39.886719 L 40.554688 -46.535156 L 0.332031 -46.535156 L 0.332031 -35.898438 L 36.5625 -35.898438 L 36.5625 -21.9375 L 15.957031 -21.9375 L 15.957031 -32.574219 L 5.320312 -32.574219 L 5.320312 0 L 15.957031 0 L 15.957031 -11.300781 L 27.058594 -11.300781 C 30.382812 -7.511719 33.640625 -3.722656 37.03125 0 L 50.523438 0 C 47.132812 -3.722656 43.875 -7.511719 40.554688 -11.300781 Z M 40.554688 -11.300781 "/></g></g></g><g fill="#00ffff" fill-opacity="1"><g transform="translate(136.131975, 232.22608)"><g><path d="M 48.53125 0 L 48.53125 -10.636719 L 13.960938 -10.636719 L 13.960938 -35.898438 L 39.554688 -35.898438 L 39.554688 -27.921875 L 17.285156 -27.921875 L 17.285156 -17.285156 L 43.542969 -17.285156 L 50.191406 -23.933594 L 50.191406 -39.886719 L 43.542969 -46.535156 L 9.972656 -46.535156 L 3.324219 -39.886719 L 3.324219 -6.648438 L 9.972656 0 Z M 48.53125 0 "/></g></g></g><g fill="#00ffff" fill-opacity="1"><g transform="translate(196.753334, 232.22608)"><g><path d="M 49.925781 0 L 39.023438 -23.269531 L 49.925781 -46.535156 L 38.226562 -46.535156 L 29.78125 -28.585938 L 15.957031 -28.585938 L 15.957031 -46.535156 L 0.332031 -46.535156 L 0.332031 -35.898438 L 5.320312 -35.898438 L 5.320312 0 L 15.957031 0 L 15.957031 -17.949219 L 29.914062 -17.949219 L 38.226562 0 Z M 49.925781 0 "/></g></g></g><g fill="#00ffff" fill-opacity="1"><g transform="translate(255.779438, 232.22608)"><g><path d="M 29.316406 0 L 29.316406 -35.898438 L 47.667969 -35.898438 L 47.667969 -46.535156 L 0.332031 -46.535156 L 0.332031 -35.898438 L 18.679688 -35.898438 L 18.679688 0 Z M 29.316406 0 "/></g></g></g><g fill="#ffffff" fill-opacity="1"><g transform="translate(74.537489, 232.631212)"><g><path d="M 40.554688 -11.300781 L 47.199219 -17.949219 L 47.199219 -39.886719 L 40.554688 -46.535156 L 0.332031 -46.535156 L 0.332031 -35.898438 L 36.5625 -35.898438 L 36.5625 -21.9375 L 15.957031 -21.9375 L 15.957031 -32.574219 L 5.320312 -32.574219 L 5.320312 0 L 15.957031 0 L 15.957031 -11.300781 L 27.058594 -11.300781 C 30.382812 -7.511719 33.640625 -3.722656 37.03125 0 L 50.523438 0 C 47.132812 -3.722656 43.875 -7.511719 40.554688 -11.300781 Z M 40.554688 -11.300781 "/></g></g></g><g fill="#ffffff" fill-opacity="1"><g transform="translate(132.832436, 232.631212)"><g><path d="M 48.53125 0 L 48.53125 -10.636719 L 13.960938 -10.636719 L 13.960938 -35.898438 L 39.554688 -35.898438 L 39.554688 -27.921875 L 17.285156 -27.921875 L 17.285156 -17.285156 L 43.542969 -17.285156 L 50.191406 -23.933594 L 50.191406 -39.886719 L 43.542969 -46.535156 L 9.972656 -46.535156 L 3.324219 -39.886719 L 3.324219 -6.648438 L 9.972656 0 Z M 48.53125 0 "/></g></g></g><g fill="#ffffff" fill-opacity="1"><g transform="translate(193.453795, 232.631212)"><g><path d="M 49.925781 0 L 39.023438 -23.269531 L 49.925781 -46.535156 L 38.226562 -46.535156 L 29.78125 -28.585938 L 15.957031 -28.585938 L 15.957031 -46.535156 L 0.332031 -46.535156 L 0.332031 -35.898438 L 5.320312 -35.898438 L 5.320312 0 L 15.957031 0 L 15.957031 -17.949219 L 29.914062 -17.949219 L 38.226562 0 Z M 49.925781 0 "/></g></g></g><g fill="#ffffff" fill-opacity="1"><g transform="translate(252.479899, 232.631212)"><g><path d="M 29.316406 0 L 29.316406 -35.898438 L 47.667969 -35.898438 L 47.667969 -46.535156 L 0.332031 -46.535156 L 0.332031 -35.898438 L 18.679688 -35.898438 L 18.679688 0 Z M 29.316406 0 "/></g></g></g></svg>